<svg xmlns="http://www.w3.org/2000/svg" fill="none" viewBox="0 0 231 155"><path fill="#FFFDFD" d="M20 54.3a54.3 54.3 0 0039 52.1c1 .3 1.6 1.2 1.6 2.3H.6V0h60c0 1-.7 2-1.7 2.3a54.3 54.3 0 00-38.8 52z"/><path fill="#FFFDFD" d="M80.8 85a30.8 30.8 0 100-61.6 30.8 30.8 0 000 61.6zM121.7 0h49.4a69 69 0 0131.3 6.8 51 51 0 0121 19c5.1 8.1 7.6 17.6 7.6 28.5a50.6 50.6 0 01-28.6 47.6 69 69 0 01-31.3 6.8h-49.4V0zM170 88c10.9 0 19.5-3 26-9 6.4-6.1 9.7-14.4 9.7-24.7a32 32 0 00-9.7-24.5c-6.5-6-15.2-9.1-26-9.1h-23V88h23zM15 154.4c-2.3 0-4.2-.5-6-1.5-1.7-.9-3.1-2.2-4.1-3.8-1-1.7-1.5-3.5-1.5-5.6a10.6 10.6 0 015.6-9.4c1.8-1 3.7-1.5 6-1.5 2 0 4 .5 5.8 1.5a10.6 10.6 0 015.6 9.4 10.6 10.6 0 01-5.6 9.4c-1.7 1-3.7 1.5-5.9 1.5zm0-4.2c1.2 0 2.3-.3 3.3-.8 1-.6 1.8-1.4 2.3-2.4a7 7 0 00.9-3.5 7 7 0 00-.9-3.5 6 6 0 00-2.3-2.3 6.6 6.6 0 00-9 2.4c-.7 1-1 2.1-1 3.4 0 1.3.3 2.5.9 3.5a6.4 6.4 0 005.7 3.2zM43.4 154l-4-5.8h-4.5v5.8h-4.8v-21h9c2 0 3.5.3 4.9 1 1.4.6 2.4 1.4 3.2 2.6a7.3 7.3 0 011 4c0 1.6-.3 3-1 4a7 7 0 01-3.3 2.7l4.8 6.7h-5.3zm0-13.4c0-1.2-.4-2-1.2-2.7-.8-.6-1.9-1-3.3-1h-4v7.4h4c1.4 0 2.5-.3 3.3-1 .8-.6 1.1-1.5 1.1-2.7zM62.3 154.4c-2.2 0-4.2-.5-6-1.5-1.7-.9-3-2.2-4-3.8-1-1.7-1.5-3.5-1.5-5.6a10.6 10.6 0 015.6-9.4c1.7-1 3.7-1.5 5.9-1.5s4.1.5 5.9 1.5a10.6 10.6 0 015.6 9.4 10.6 10.6 0 01-5.6 9.4c-1.8 1-3.7 1.5-6 1.5zm0-4.2c1.2 0 2.3-.3 3.3-.8 1-.6 1.8-1.4 2.4-2.4a7 7 0 00.9-3.5 7 7 0 00-1-3.5 6 6 0 00-2.3-2.3c-1-.6-2-1-3.3-1a6.6 6.6 0 00-5.7 3.3c-.6 1-.9 2.2-.9 3.5 0 1.3.3 2.5.9 3.5a6.4 6.4 0 005.7 3.2zM84.3 154.4c-1.6 0-3.2-.3-4.8-.7-1.5-.5-2.8-1-3.7-1.8l1.6-3.6c1 .6 2 1.2 3.2 1.6 1.3.4 2.5.6 3.8.6a6 6 0 003-.6c.7-.5 1-1 1-1.7 0-.5-.2-.9-.6-1.2-.4-.4-.9-.6-1.5-.8l-2.5-.7-3.9-1.1c-1-.4-1.9-1-2.6-1.9a5 5 0 01-1.1-3.3c0-1.2.3-2.3 1-3.3.6-1 1.6-1.8 3-2.4 1.3-.6 3-.9 4.8-.9 1.4 0 2.7.2 4 .5 1.3.3 2.4.8 3.3 1.4l-1.5 3.7c-1.9-1.1-3.8-1.7-5.8-1.7-1.3 0-2.4.3-3 .7-.7.4-1 1-1 1.7 0 .8.4 1.3 1.1 1.7l3.5 1 4 1.1c1 .4 1.8 1 2.5 1.8.8.8 1.1 2 1.1 3.3 0 1.3-.3 2.3-1 3.3-.6 1-1.6 1.8-3 2.4-1.3.6-3 .9-4.9.9zM105 133h9.6c2.3 0 4.3.4 6 1.3 1.8.9 3.1 2.1 4.1 3.7 1 1.6 1.5 3.4 1.5 5.5s-.5 4-1.5 5.5a9.7 9.7 0 01-4 3.7c-1.8.9-3.8 1.3-6.1 1.3H105v-21zm9.4 17a7 7 0 005-1.7 6.2 6.2 0 001.9-4.8c0-2-.7-3.6-2-4.7a7 7 0 00-5-1.8H110v13h4.5zM129.8 133h4.9v21h-4.9v-21zM153.9 143.2h4.4v8.5a15.4 15.4 0 01-8.5 2.7c-2.2 0-4.1-.5-5.9-1.4-1.7-1-3-2.3-4-3.9-1-1.7-1.5-3.5-1.5-5.6 0-2 .5-4 1.4-5.6 1-1.6 2.4-3 4.2-3.8 1.7-1 3.7-1.5 6-1.5 1.8 0 3.4.3 5 1a10 10 0 013.7 2.7l-3.1 2.8a7.2 7.2 0 00-5.4-2.3c-1.4 0-2.6.3-3.6.8a6 6 0 00-2.4 2.4 7 7 0 00-1 3.5 7 7 0 001 3.5c.5 1 1.3 1.8 2.4 2.4 1 .5 2.2.8 3.5.8 1.4 0 2.7-.3 3.8-.9v-6.1zM162.8 133h4.9v21h-4.9v-21zM177 137h-6.7v-4h18.3v4h-6.7v17H177v-17zM204 149.5h-9.8l-1.8 4.5h-5l9.4-21h4.8l9.4 21h-5.1l-2-4.5zm-1.5-3.7l-3.4-8-3.3 8h6.7zM213.1 133h4.9v17h10.5v4h-15.4v-21z"/></svg>