<svg xmlns="http://www.w3.org/2000/svg" fill="none" viewBox="0 0 73 35"><path fill="#FFFDFD" d="M6.19 17.23c0 7.8 5.2 14.39 12.3 16.5.32.08.53.37.53.7H0V.03h19.02c0 .31-.2.6-.52.71a17.2 17.2 0 00-12.31 16.5z"/><path fill="#FFFDFD" d="M25.42 26.95a9.76 9.76 0 100-19.53 9.76 9.76 0 000 19.53zM38.38.02h15.64c3.74 0 7.05.71 9.91 2.14a16.15 16.15 0 016.7 6.02c1.6 2.59 2.37 5.6 2.37 9.05 0 3.45-.8 6.46-2.38 9.05a16.03 16.03 0 01-6.69 6.01 21.88 21.88 0 01-9.91 2.15H38.38V.02zM53.64 27.9c3.45 0 6.19-.97 8.23-2.89 2.04-1.91 3.07-4.52 3.07-7.78 0-3.28-1.03-5.87-3.07-7.79-2.04-1.91-4.8-2.88-8.23-2.88h-7.28V27.9h7.28z"/></svg>